<?xml version="1.0" encoding="UTF-8" standalone="no"?><svg xmlns="http://www.w3.org/2000/svg" xmlns:xlink="http://www.w3.org/1999/xlink" clip-rule="evenodd" stroke-miterlimit="10" viewBox="0 0 1048 104"><desc>SVG generated by Keynote</desc><defs></defs><g transform="matrix(1.00, 0.00, -0.00, -1.00, 0.0, 104.0)"><text xml:space="preserve" font-family="BradleyHandITCTT-Bold,Bradley Hand" font-weight="bold" font-size="94.0" fill="#FEFFFF" transform="matrix(1.00, 0.00, -0.00, -1.00, 2.1, 33.0)">T</text><text xml:space="preserve" font-family="BradleyHandITCTT-Bold,Bradley Hand" font-weight="bold" font-size="94.0" fill="#FEFFFF" transform="matrix(1.00, 0.00, -0.00, -1.00, 59.6, 33.0)">o</text><text xml:space="preserve" font-family="BradleyHandITCTT-Bold,Bradley Hand" font-weight="bold" font-size="94.0" fill="#FEFFFF" transform="matrix(1.00, 0.00, -0.00, -1.00, 99.8, 33.0)"> </text><text xml:space="preserve" font-family="BradleyHandITCTT-Bold,Bradley Hand" font-weight="bold" font-size="94.0" fill="#FEFFFF" transform="matrix(1.00, 0.00, -0.00, -1.00, 123.8, 33.0)">b</text><text xml:space="preserve" font-family="BradleyHandITCTT-Bold,Bradley Hand" font-weight="bold" font-size="94.0" fill="#FEFFFF" transform="matrix(1.00, 0.00, -0.00, -1.00, 169.3, 33.0)">e</text><text xml:space="preserve" font-family="BradleyHandITCTT-Bold,Bradley Hand" font-weight="bold" font-size="94.0" fill="#FEFFFF" transform="matrix(1.00, 0.00, -0.00, -1.00, 204.8, 33.0)"> </text><text xml:space="preserve" font-family="BradleyHandITCTT-Bold,Bradley Hand" font-weight="bold" font-size="94.0" fill="#FEFFFF" transform="matrix(1.00, 0.00, -0.00, -1.00, 228.7, 33.0)">o</text><text xml:space="preserve" font-family="BradleyHandITCTT-Bold,Bradley Hand" font-weight="bold" font-size="94.0" fill="#FEFFFF" transform="matrix(1.00, 0.00, -0.00, -1.00, 268.9, 33.0)">r</text><text xml:space="preserve" font-family="BradleyHandITCTT-Bold,Bradley Hand" font-weight="bold" font-size="94.0" fill="#FEFFFF" transform="matrix(1.00, 0.00, -0.00, -1.00, 305.6, 33.0)"> </text><text xml:space="preserve" font-family="BradleyHandITCTT-Bold,Bradley Hand" font-weight="bold" font-size="94.0" fill="#FEFFFF" transform="matrix(1.00, 0.00, -0.00, -1.00, 329.6, 33.0)">n</text><text xml:space="preserve" font-family="BradleyHandITCTT-Bold,Bradley Hand" font-weight="bold" font-size="94.0" fill="#FEFFFF" transform="matrix(1.00, 0.00, -0.00, -1.00, 392.6, 33.0)">o</text><text xml:space="preserve" font-family="BradleyHandITCTT-Bold,Bradley Hand" font-weight="bold" font-size="94.0" fill="#FEFFFF" transform="matrix(1.00, 0.00, -0.00, -1.00, 432.7, 33.0)">t</text><text xml:space="preserve" font-family="BradleyHandITCTT-Bold,Bradley Hand" font-weight="bold" font-size="94.0" fill="#FEFFFF" transform="matrix(1.00, 0.00, -0.00, -1.00, 465.8, 33.0)"> </text><text xml:space="preserve" font-family="BradleyHandITCTT-Bold,Bradley Hand" font-weight="bold" font-size="94.0" fill="#FEFFFF" transform="matrix(1.00, 0.00, -0.00, -1.00, 489.8, 33.0)">t</text><text xml:space="preserve" font-family="BradleyHandITCTT-Bold,Bradley Hand" font-weight="bold" font-size="94.0" fill="#FEFFFF" transform="matrix(1.00, 0.00, -0.00, -1.00, 522.9, 33.0)">o</text><text xml:space="preserve" font-family="BradleyHandITCTT-Bold,Bradley Hand" font-weight="bold" font-size="94.0" fill="#FEFFFF" transform="matrix(1.00, 0.00, -0.00, -1.00, 563.0, 33.0)"> </text><text xml:space="preserve" font-family="BradleyHandITCTT-Bold,Bradley Hand" font-weight="bold" font-size="94.0" fill="#FEFFFF" transform="matrix(1.00, 0.00, -0.00, -1.00, 587.0, 33.0)">b</text><text xml:space="preserve" font-family="BradleyHandITCTT-Bold,Bradley Hand" font-weight="bold" font-size="94.0" fill="#FEFFFF" transform="matrix(1.00, 0.00, -0.00, -1.00, 632.6, 33.0)">e</text><text xml:space="preserve" font-family="BradleyHandITCTT-Bold,Bradley Hand" font-weight="bold" font-size="94.0" fill="#FEFFFF" transform="matrix(1.00, 0.00, -0.00, -1.00, 668.0, 33.0)">:</text><text xml:space="preserve" font-family="BradleyHandITCTT-Bold,Bradley Hand" font-weight="bold" font-size="94.0" fill="#FEFFFF" transform="matrix(1.00, 0.00, -0.00, -1.00, 692.9, 33.0)"> </text><text xml:space="preserve" font-family="BradleyHandITCTT-Bold,Bradley Hand" font-weight="bold" font-size="94.0" fill="#FEFFFF" transform="matrix(1.00, 0.00, -0.00, -1.00, 716.9, 33.0)">o</text><text xml:space="preserve" font-family="BradleyHandITCTT-Bold,Bradley Hand" font-weight="bold" font-size="94.0" fill="#FEFFFF" transform="matrix(1.00, 0.00, -0.00, -1.00, 757.0, 33.0)">p</text><text xml:space="preserve" font-family="BradleyHandITCTT-Bold,Bradley Hand" font-weight="bold" font-size="94.0" fill="#FEFFFF" transform="matrix(1.00, 0.00, -0.00, -1.00, 801.0, 33.0)">t</text><text xml:space="preserve" font-family="BradleyHandITCTT-Bold,Bradley Hand" font-weight="bold" font-size="94.0" fill="#FEFFFF" transform="matrix(1.00, 0.00, -0.00, -1.00, 834.1, 33.0)">i</text><text xml:space="preserve" font-family="BradleyHandITCTT-Bold,Bradley Hand" font-weight="bold" font-size="94.0" fill="#FEFFFF" transform="matrix(1.00, 0.00, -0.00, -1.00, 864.9, 33.0)">o</text><text xml:space="preserve" font-family="BradleyHandITCTT-Bold,Bradley Hand" font-weight="bold" font-size="94.0" fill="#FEFFFF" transform="matrix(1.00, 0.00, -0.00, -1.00, 905.1, 33.0)">n</text><text xml:space="preserve" font-family="BradleyHandITCTT-Bold,Bradley Hand" font-weight="bold" font-size="94.0" fill="#FEFFFF" transform="matrix(1.00, 0.00, -0.00, -1.00, 968.1, 33.0)">a</text><text xml:space="preserve" font-family="BradleyHandITCTT-Bold,Bradley Hand" font-weight="bold" font-size="94.0" fill="#FEFFFF" transform="matrix(1.00, 0.00, -0.00, -1.00, 1016.5, 33.0)">l</text></g></svg>