<?xml version="1.0" encoding="UTF-8" standalone="no"?><svg xmlns="http://www.w3.org/2000/svg" xmlns:xlink="http://www.w3.org/1999/xlink" clip-rule="evenodd" stroke-miterlimit="10" viewBox="0 0 401 70"><desc>SVG generated by Keynote</desc><defs></defs><g transform="matrix(1.00, 0.00, -0.00, -1.00, 0.0, 70.0)"><g><clipPath id="clip0x7f9bf5246eb0"><path d="M 0.8 0.9 L 69.7 0.9 L 69.7 69.9 L 0.8 69.9 Z M 0.8 0.9 "></path></clipPath><g clip-path="url(#clip0x7f9bf5246eb0)"><image xlink:href="../../77A53576-6640-4D98-A122-C00042F19D03/assets/D93F090722A5269D0B30C3E05CCA40BA.png" width="225.00" height="225.00" transform="matrix(0.31, 0.00, -0.00, -0.31, 1.0, 70.0)"></image></g></g><g><clipPath id="clip0x7f9bf50b17d0"><path d="M 52.8 4.2 L 403.0 4.2 L 403.0 66.7 L 52.8 66.7 Z M 52.8 4.2 "></path></clipPath><g clip-path="url(#clip0x7f9bf50b17d0)"><text xml:space="preserve" font-family="Helvetica-Light,Helvetica" font-size="37.0" fill="#FEFFFF" transform="matrix(1.00, 0.00, -0.00, -1.00, 86.4, 21.9)">a</text><text xml:space="preserve" font-family="Helvetica-Light,Helvetica" font-size="37.0" fill="#FEFFFF" transform="matrix(1.00, 0.00, -0.00, -1.00, 106.9, 21.9)">e</text><text xml:space="preserve" font-family="Helvetica-Light,Helvetica" font-size="37.0" fill="#FEFFFF" transform="matrix(1.00, 0.00, -0.00, -1.00, 127.5, 21.9)">r</text><text xml:space="preserve" font-family="Helvetica-Light,Helvetica" font-size="37.0" fill="#FEFFFF" transform="matrix(1.00, 0.00, -0.00, -1.00, 139.2, 21.9)">o</text><text xml:space="preserve" font-family="Helvetica-Light,Helvetica" font-size="37.0" fill="#FEFFFF" transform="matrix(1.00, 0.00, -0.00, -1.00, 159.7, 21.9)">g</text><text xml:space="preserve" font-family="Helvetica-Light,Helvetica" font-size="37.0" fill="#FEFFFF" transform="matrix(1.00, 0.00, -0.00, -1.00, 182.3, 21.9)">e</text><text xml:space="preserve" font-family="Helvetica-Light,Helvetica" font-size="37.0" fill="#FEFFFF" transform="matrix(1.00, 0.00, -0.00, -1.00, 202.9, 21.9)">a</text><text xml:space="preserve" font-family="Helvetica-Light,Helvetica" font-size="37.0" fill="#FEFFFF" transform="matrix(1.00, 0.00, -0.00, -1.00, 223.5, 21.9)">r</text><text xml:space="preserve" font-family="Helvetica-Light,Helvetica" font-size="37.0" fill="#FEFFFF" transform="matrix(1.00, 0.00, -0.00, -1.00, 233.8, 21.9)">-</text><text xml:space="preserve" font-family="Helvetica-Light,Helvetica" font-size="37.0" fill="#FEFFFF" transform="matrix(1.00, 0.00, -0.00, -1.00, 246.1, 21.9)">i</text><text xml:space="preserve" font-family="Helvetica-Light,Helvetica" font-size="37.0" fill="#FEFFFF" transform="matrix(1.00, 0.00, -0.00, -1.00, 254.3, 21.9)">o</text><text xml:space="preserve" font-family="Helvetica-Light,Helvetica" font-size="37.0" fill="#FEFFFF" transform="matrix(1.00, 0.00, -0.00, -1.00, 274.9, 21.9)">s</text><text xml:space="preserve" font-family="Helvetica-Light,Helvetica" font-size="37.0" fill="#FEFFFF" transform="matrix(1.00, 0.00, -0.00, -1.00, 293.4, 21.9)">-</text><text xml:space="preserve" font-family="Helvetica-Light,Helvetica" font-size="37.0" fill="#FEFFFF" transform="matrix(1.00, 0.00, -0.00, -1.00, 305.7, 21.9)">h</text><text xml:space="preserve" font-family="Helvetica-Light,Helvetica" font-size="37.0" fill="#FEFFFF" transform="matrix(1.00, 0.00, -0.00, -1.00, 326.3, 21.9)">t</text><text xml:space="preserve" font-family="Helvetica-Light,Helvetica" font-size="37.0" fill="#FEFFFF" transform="matrix(1.00, 0.00, -0.00, -1.00, 336.6, 21.9)">t</text><text xml:space="preserve" font-family="Helvetica-Light,Helvetica" font-size="37.0" fill="#FEFFFF" transform="matrix(1.00, 0.00, -0.00, -1.00, 346.8, 21.9)">p</text><text xml:space="preserve" font-family="Helvetica-Light,Helvetica" font-size="37.0" fill="#FEFFFF" transform="matrix(1.00, 0.00, -0.00, -1.00, 369.4, 21.9)"> </text><text xml:space="preserve" font-family="Helvetica-Light,Helvetica" font-size="37.0" fill="#FEFFFF" transform="matrix(1.00, 0.00, -0.00, -1.00, 379.7, 21.9)"> </text><text xml:space="preserve" font-family="Helvetica-Light,Helvetica" font-size="37.0" fill="#FEFFFF" transform="matrix(1.00, 0.00, -0.00, -1.00, 390.0, 21.9)"> </text><path d="M 29.9 43.9 L 313.0 43.9 " fill="none" stroke="#FEFFFF" stroke-width="1.85" transform="matrix(1.00, 0.00, 0.00, -1.00, 56.4, 63.0)"></path></g></g></g></svg>