<?xml version="1.0" encoding="UTF-8" standalone="no"?><svg xmlns="http://www.w3.org/2000/svg" xmlns:xlink="http://www.w3.org/1999/xlink" clip-rule="evenodd" stroke-miterlimit="10" viewBox="0 0 1248 201"><desc>SVG generated by Keynote</desc><defs></defs><g transform="matrix(1.00, 0.00, -0.00, -1.00, 0.0, 201.0)"><text xml:space="preserve" font-family="Menlo-Regular,Menlo" font-size="30.0" fill="#DD38A5" transform="matrix(1.00, 0.00, -0.00, -1.00, 36.2, 175.2)">p</text><text xml:space="preserve" font-family="Menlo-Regular,Menlo" font-size="30.0" fill="#DD38A5" transform="matrix(1.00, 0.00, -0.00, -1.00, 54.2, 175.2)">u</text><text xml:space="preserve" font-family="Menlo-Regular,Menlo" font-size="30.0" fill="#DD38A5" transform="matrix(1.00, 0.00, -0.00, -1.00, 72.3, 175.2)">b</text><text xml:space="preserve" font-family="Menlo-Regular,Menlo" font-size="30.0" fill="#DD38A5" transform="matrix(1.00, 0.00, -0.00, -1.00, 90.4, 175.2)">l</text><text xml:space="preserve" font-family="Menlo-Regular,Menlo" font-size="30.0" fill="#DD38A5" transform="matrix(1.00, 0.00, -0.00, -1.00, 108.4, 175.2)">i</text><text xml:space="preserve" font-family="Menlo-Regular,Menlo" font-size="30.0" fill="#DD38A5" transform="matrix(1.00, 0.00, -0.00, -1.00, 126.5, 175.2)">c</text><text xml:space="preserve" font-family="Menlo-Regular,Menlo" font-size="30.0" fill="#FFFFFF" transform="matrix(1.00, 0.00, -0.00, -1.00, 144.5, 175.2)"> </text><text xml:space="preserve" font-family="Menlo-Regular,Menlo" font-size="30.0" fill="#DD38A5" transform="matrix(1.00, 0.00, -0.00, -1.00, 162.6, 175.2)">f</text><text xml:space="preserve" font-family="Menlo-Regular,Menlo" font-size="30.0" fill="#DD38A5" transform="matrix(1.00, 0.00, -0.00, -1.00, 180.7, 175.2)">u</text><text xml:space="preserve" font-family="Menlo-Regular,Menlo" font-size="30.0" fill="#DD38A5" transform="matrix(1.00, 0.00, -0.00, -1.00, 198.7, 175.2)">n</text><text xml:space="preserve" font-family="Menlo-Regular,Menlo" font-size="30.0" fill="#DD38A5" transform="matrix(1.00, 0.00, -0.00, -1.00, 216.8, 175.2)">c</text><text xml:space="preserve" font-family="Menlo-Regular,Menlo" font-size="30.0" fill="#FFFFFF" transform="matrix(1.00, 0.00, -0.00, -1.00, 234.9, 175.2)"> </text><text xml:space="preserve" font-family="Menlo-Regular,Menlo" font-size="30.0" fill="#FFFFFF" transform="matrix(1.00, 0.00, -0.00, -1.00, 252.9, 175.2)">r</text><text xml:space="preserve" font-family="Menlo-Regular,Menlo" font-size="30.0" fill="#FFFFFF" transform="matrix(1.00, 0.00, -0.00, -1.00, 271.0, 175.2)">e</text><text xml:space="preserve" font-family="Menlo-Regular,Menlo" font-size="30.0" fill="#FFFFFF" transform="matrix(1.00, 0.00, -0.00, -1.00, 289.0, 175.2)">q</text><text xml:space="preserve" font-family="Menlo-Regular,Menlo" font-size="30.0" fill="#FFFFFF" transform="matrix(1.00, 0.00, -0.00, -1.00, 307.1, 175.2)">u</text><text xml:space="preserve" font-family="Menlo-Regular,Menlo" font-size="30.0" fill="#FFFFFF" transform="matrix(1.00, 0.00, -0.00, -1.00, 325.2, 175.2)">e</text><text xml:space="preserve" font-family="Menlo-Regular,Menlo" font-size="30.0" fill="#FFFFFF" transform="matrix(1.00, 0.00, -0.00, -1.00, 343.2, 175.2)">s</text><text xml:space="preserve" font-family="Menlo-Regular,Menlo" font-size="30.0" fill="#FFFFFF" transform="matrix(1.00, 0.00, -0.00, -1.00, 361.3, 175.2)">t</text><text xml:space="preserve" font-family="Menlo-Regular,Menlo" font-size="30.0" fill="#FFFFFF" transform="matrix(1.00, 0.00, -0.00, -1.00, 379.4, 175.2)">(</text><text xml:space="preserve" font-family="Menlo-Regular,Menlo" font-size="30.0" fill="#FFFFFF" transform="matrix(1.00, 0.00, -0.00, -1.00, 397.4, 175.2)">u</text><text xml:space="preserve" font-family="Menlo-Regular,Menlo" font-size="30.0" fill="#FFFFFF" transform="matrix(1.00, 0.00, -0.00, -1.00, 415.5, 175.2)">r</text><text xml:space="preserve" font-family="Menlo-Regular,Menlo" font-size="30.0" fill="#FFFFFF" transform="matrix(1.00, 0.00, -0.00, -1.00, 433.6, 175.2)">l</text><text xml:space="preserve" font-family="Menlo-Regular,Menlo" font-size="30.0" fill="#FFFFFF" transform="matrix(1.00, 0.00, -0.00, -1.00, 451.6, 175.2)">:</text><text xml:space="preserve" font-family="Menlo-Regular,Menlo" font-size="30.0" fill="#FFFFFF" transform="matrix(1.00, 0.00, -0.00, -1.00, 469.7, 175.2)"> </text><text xml:space="preserve" font-family="Menlo-Regular,Menlo" font-size="30.0" fill="#00B1FF" transform="matrix(1.00, 0.00, -0.00, -1.00, 487.7, 175.2)">N</text><text xml:space="preserve" font-family="Menlo-Regular,Menlo" font-size="30.0" fill="#00B1FF" transform="matrix(1.00, 0.00, -0.00, -1.00, 505.8, 175.2)">S</text><text xml:space="preserve" font-family="Menlo-Regular,Menlo" font-size="30.0" fill="#00B1FF" transform="matrix(1.00, 0.00, -0.00, -1.00, 523.8, 175.2)">U</text><text xml:space="preserve" font-family="Menlo-Regular,Menlo" font-size="30.0" fill="#00B1FF" transform="matrix(1.00, 0.00, -0.00, -1.00, 541.9, 175.2)">R</text><text xml:space="preserve" font-family="Menlo-Regular,Menlo" font-size="30.0" fill="#00B1FF" transform="matrix(1.00, 0.00, -0.00, -1.00, 560.0, 175.2)">L</text><text xml:space="preserve" font-family="Menlo-Regular,Menlo" font-size="30.0" fill="#FFFFFF" transform="matrix(1.00, 0.00, -0.00, -1.00, 578.0, 175.2)">,</text><text xml:space="preserve" font-family="Menlo-Regular,Menlo" font-size="30.0" fill="#FFFFFF" transform="matrix(1.00, 0.00, -0.00, -1.00, 596.1, 175.2)"> </text><text xml:space="preserve" font-family="Menlo-Regular,Menlo" font-size="30.0" fill="#FFFFFF" transform="matrix(1.00, 0.00, -0.00, -1.00, 614.1, 175.2)"> </text><text xml:space="preserve" font-family="Menlo-Regular,Menlo" font-size="30.0" fill="#FFFFFF" transform="matrix(1.00, 0.00, -0.00, -1.00, 144.2, 140.2)"> </text><text xml:space="preserve" font-family="Menlo-Regular,Menlo" font-size="30.0" fill="#FFFFFF" transform="matrix(1.00, 0.00, -0.00, -1.00, 162.2, 140.2)"> </text><text xml:space="preserve" font-family="Menlo-Regular,Menlo" font-size="30.0" fill="#FFFFFF" transform="matrix(1.00, 0.00, -0.00, -1.00, 180.3, 140.2)"> </text><text xml:space="preserve" font-family="Menlo-Regular,Menlo" font-size="30.0" fill="#FFFFFF" transform="matrix(1.00, 0.00, -0.00, -1.00, 198.4, 140.2)"> </text><text xml:space="preserve" font-family="Menlo-Regular,Menlo" font-size="30.0" fill="#FFFFFF" transform="matrix(1.00, 0.00, -0.00, -1.00, 216.4, 140.2)"> </text><text xml:space="preserve" font-family="Menlo-Regular,Menlo" font-size="30.0" fill="#FFFFFF" transform="matrix(1.00, 0.00, -0.00, -1.00, 234.5, 140.2)"> </text><text xml:space="preserve" font-family="Menlo-Regular,Menlo" font-size="30.0" fill="#FFFFFF" transform="matrix(1.00, 0.00, -0.00, -1.00, 252.6, 140.2)"> </text><text xml:space="preserve" font-family="Menlo-Regular,Menlo" font-size="30.0" fill="#FFFFFF" transform="matrix(1.00, 0.00, -0.00, -1.00, 270.6, 140.2)"> </text><text xml:space="preserve" font-family="Menlo-Regular,Menlo" font-size="30.0" fill="#FFFFFF" transform="matrix(1.00, 0.00, -0.00, -1.00, 288.7, 140.2)"> </text><text xml:space="preserve" font-family="Menlo-Regular,Menlo" font-size="30.0" fill="#FFFFFF" transform="matrix(1.00, 0.00, -0.00, -1.00, 306.8, 140.2)"> </text><text xml:space="preserve" font-family="Menlo-Regular,Menlo" font-size="30.0" fill="#FFFFFF" transform="matrix(1.00, 0.00, -0.00, -1.00, 324.8, 140.2)">m</text><text xml:space="preserve" font-family="Menlo-Regular,Menlo" font-size="30.0" fill="#FFFFFF" transform="matrix(1.00, 0.00, -0.00, -1.00, 342.9, 140.2)">e</text><text xml:space="preserve" font-family="Menlo-Regular,Menlo" font-size="30.0" fill="#FFFFFF" transform="matrix(1.00, 0.00, -0.00, -1.00, 361.0, 140.2)">t</text><text xml:space="preserve" font-family="Menlo-Regular,Menlo" font-size="30.0" fill="#FFFFFF" transform="matrix(1.00, 0.00, -0.00, -1.00, 379.0, 140.2)">h</text><text xml:space="preserve" font-family="Menlo-Regular,Menlo" font-size="30.0" fill="#FFFFFF" transform="matrix(1.00, 0.00, -0.00, -1.00, 397.1, 140.2)">o</text><text xml:space="preserve" font-family="Menlo-Regular,Menlo" font-size="30.0" fill="#FFFFFF" transform="matrix(1.00, 0.00, -0.00, -1.00, 415.1, 140.2)">d</text><text xml:space="preserve" font-family="Menlo-Regular,Menlo" font-size="30.0" fill="#FFFFFF" transform="matrix(1.00, 0.00, -0.00, -1.00, 433.2, 140.2)">:</text><text xml:space="preserve" font-family="Menlo-Regular,Menlo" font-size="30.0" fill="#FFFFFF" transform="matrix(1.00, 0.00, -0.00, -1.00, 451.3, 140.2)"> </text><text xml:space="preserve" font-family="Menlo-Regular,Menlo" font-size="30.0" fill="#08FA95" transform="matrix(1.00, 0.00, -0.00, -1.00, 469.3, 140.2)">H</text><text xml:space="preserve" font-family="Menlo-Regular,Menlo" font-size="30.0" fill="#08FA95" transform="matrix(1.00, 0.00, -0.00, -1.00, 487.3, 140.2)">t</text><text xml:space="preserve" font-family="Menlo-Regular,Menlo" font-size="30.0" fill="#08FA95" transform="matrix(1.00, 0.00, -0.00, -1.00, 505.4, 140.2)">t</text><text xml:space="preserve" font-family="Menlo-Regular,Menlo" font-size="30.0" fill="#08FA95" transform="matrix(1.00, 0.00, -0.00, -1.00, 523.5, 140.2)">p</text><text xml:space="preserve" font-family="Menlo-Regular,Menlo" font-size="30.0" fill="#08FA95" transform="matrix(1.00, 0.00, -0.00, -1.00, 541.5, 140.2)">M</text><text xml:space="preserve" font-family="Menlo-Regular,Menlo" font-size="30.0" fill="#08FA95" transform="matrix(1.00, 0.00, -0.00, -1.00, 559.6, 140.2)">e</text><text xml:space="preserve" font-family="Menlo-Regular,Menlo" font-size="30.0" fill="#08FA95" transform="matrix(1.00, 0.00, -0.00, -1.00, 577.7, 140.2)">t</text><text xml:space="preserve" font-family="Menlo-Regular,Menlo" font-size="30.0" fill="#08FA95" transform="matrix(1.00, 0.00, -0.00, -1.00, 595.7, 140.2)">h</text><text xml:space="preserve" font-family="Menlo-Regular,Menlo" font-size="30.0" fill="#08FA95" transform="matrix(1.00, 0.00, -0.00, -1.00, 613.8, 140.2)">o</text><text xml:space="preserve" font-family="Menlo-Regular,Menlo" font-size="30.0" fill="#08FA95" transform="matrix(1.00, 0.00, -0.00, -1.00, 631.9, 140.2)">d</text><text xml:space="preserve" font-family="Menlo-Regular,Menlo" font-size="30.0" fill="#FFFFFF" transform="matrix(1.00, 0.00, -0.00, -1.00, 649.9, 140.2)">,</text><text xml:space="preserve" font-family="Menlo-Regular,Menlo" font-size="30.0" fill="#FFFFFF" transform="matrix(1.00, 0.00, -0.00, -1.00, 668.0, 140.2)"> </text><text xml:space="preserve" font-family="Menlo-Regular,Menlo" font-size="30.0" fill="#FFFFFF" transform="matrix(1.00, 0.00, -0.00, -1.00, 686.0, 140.2)"> </text><text xml:space="preserve" font-family="Menlo-Regular,Menlo" font-size="30.0" fill="#FFFFFF" transform="matrix(1.00, 0.00, -0.00, -1.00, 144.2, 105.2)"> </text><text xml:space="preserve" font-family="Menlo-Regular,Menlo" font-size="30.0" fill="#FFFFFF" transform="matrix(1.00, 0.00, -0.00, -1.00, 162.2, 105.2)"> </text><text xml:space="preserve" font-family="Menlo-Regular,Menlo" font-size="30.0" fill="#FFFFFF" transform="matrix(1.00, 0.00, -0.00, -1.00, 180.3, 105.2)"> </text><text xml:space="preserve" font-family="Menlo-Regular,Menlo" font-size="30.0" fill="#FFFFFF" transform="matrix(1.00, 0.00, -0.00, -1.00, 198.4, 105.2)"> </text><text xml:space="preserve" font-family="Menlo-Regular,Menlo" font-size="30.0" fill="#FFFFFF" transform="matrix(1.00, 0.00, -0.00, -1.00, 216.4, 105.2)"> </text><text xml:space="preserve" font-family="Menlo-Regular,Menlo" font-size="30.0" fill="#FFFFFF" transform="matrix(1.00, 0.00, -0.00, -1.00, 234.5, 105.2)"> </text><text xml:space="preserve" font-family="Menlo-Regular,Menlo" font-size="30.0" fill="#FFFFFF" transform="matrix(1.00, 0.00, -0.00, -1.00, 252.6, 105.2)"> </text><text xml:space="preserve" font-family="Menlo-Regular,Menlo" font-size="30.0" fill="#FFFFFF" transform="matrix(1.00, 0.00, -0.00, -1.00, 270.6, 105.2)"> </text><text xml:space="preserve" font-family="Menlo-Regular,Menlo" font-size="30.0" fill="#FFFFFF" transform="matrix(1.00, 0.00, -0.00, -1.00, 288.7, 105.2)"> </text><text xml:space="preserve" font-family="Menlo-Regular,Menlo" font-size="30.0" fill="#FFFFFF" transform="matrix(1.00, 0.00, -0.00, -1.00, 306.8, 105.2)"> </text><text xml:space="preserve" font-family="Menlo-Regular,Menlo" font-size="30.0" fill="#FFFFFF" transform="matrix(1.00, 0.00, -0.00, -1.00, 324.8, 105.2)">p</text><text xml:space="preserve" font-family="Menlo-Regular,Menlo" font-size="30.0" fill="#FFFFFF" transform="matrix(1.00, 0.00, -0.00, -1.00, 342.9, 105.2)">a</text><text xml:space="preserve" font-family="Menlo-Regular,Menlo" font-size="30.0" fill="#FFFFFF" transform="matrix(1.00, 0.00, -0.00, -1.00, 361.0, 105.2)">r</text><text xml:space="preserve" font-family="Menlo-Regular,Menlo" font-size="30.0" fill="#FFFFFF" transform="matrix(1.00, 0.00, -0.00, -1.00, 379.0, 105.2)">a</text><text xml:space="preserve" font-family="Menlo-Regular,Menlo" font-size="30.0" fill="#FFFFFF" transform="matrix(1.00, 0.00, -0.00, -1.00, 397.1, 105.2)">m</text><text xml:space="preserve" font-family="Menlo-Regular,Menlo" font-size="30.0" fill="#FFFFFF" transform="matrix(1.00, 0.00, -0.00, -1.00, 415.1, 105.2)">e</text><text xml:space="preserve" font-family="Menlo-Regular,Menlo" font-size="30.0" fill="#FFFFFF" transform="matrix(1.00, 0.00, -0.00, -1.00, 433.2, 105.2)">t</text><text xml:space="preserve" font-family="Menlo-Regular,Menlo" font-size="30.0" fill="#FFFFFF" transform="matrix(1.00, 0.00, -0.00, -1.00, 451.3, 105.2)">e</text><text xml:space="preserve" font-family="Menlo-Regular,Menlo" font-size="30.0" fill="#FFFFFF" transform="matrix(1.00, 0.00, -0.00, -1.00, 469.3, 105.2)">r</text><text xml:space="preserve" font-family="Menlo-Regular,Menlo" font-size="30.0" fill="#FFFFFF" transform="matrix(1.00, 0.00, -0.00, -1.00, 487.4, 105.2)">s</text><text xml:space="preserve" font-family="Menlo-Regular,Menlo" font-size="30.0" fill="#FFFFFF" transform="matrix(1.00, 0.00, -0.00, -1.00, 505.5, 105.2)">:</text><text xml:space="preserve" font-family="Menlo-Regular,Menlo" font-size="30.0" fill="#FFFFFF" transform="matrix(1.00, 0.00, -0.00, -1.00, 523.5, 105.2)"> </text><text xml:space="preserve" font-family="Menlo-Regular,Menlo" font-size="30.0" fill="#FFFFFF" transform="matrix(1.00, 0.00, -0.00, -1.00, 541.6, 105.2)">[</text><text xml:space="preserve" font-family="Menlo-Regular,Menlo" font-size="30.0" fill="#00B1FF" transform="matrix(1.00, 0.00, -0.00, -1.00, 559.6, 105.2)">S</text><text xml:space="preserve" font-family="Menlo-Regular,Menlo" font-size="30.0" fill="#00B1FF" transform="matrix(1.00, 0.00, -0.00, -1.00, 577.7, 105.2)">t</text><text xml:space="preserve" font-family="Menlo-Regular,Menlo" font-size="30.0" fill="#00B1FF" transform="matrix(1.00, 0.00, -0.00, -1.00, 595.7, 105.2)">r</text><text xml:space="preserve" font-family="Menlo-Regular,Menlo" font-size="30.0" fill="#00B1FF" transform="matrix(1.00, 0.00, -0.00, -1.00, 613.8, 105.2)">i</text><text xml:space="preserve" font-family="Menlo-Regular,Menlo" font-size="30.0" fill="#00B1FF" transform="matrix(1.00, 0.00, -0.00, -1.00, 631.9, 105.2)">n</text><text xml:space="preserve" font-family="Menlo-Regular,Menlo" font-size="30.0" fill="#00B1FF" transform="matrix(1.00, 0.00, -0.00, -1.00, 649.9, 105.2)">g</text><text xml:space="preserve" font-family="Menlo-Regular,Menlo" font-size="30.0" fill="#FFFFFF" transform="matrix(1.00, 0.00, -0.00, -1.00, 668.0, 105.2)">:</text><text xml:space="preserve" font-family="Menlo-Regular,Menlo" font-size="30.0" fill="#FFFFFF" transform="matrix(1.00, 0.00, -0.00, -1.00, 686.0, 105.2)"> </text><text xml:space="preserve" font-family="Menlo-Regular,Menlo" font-size="30.0" fill="#00B1FF" transform="matrix(1.00, 0.00, -0.00, -1.00, 704.1, 105.2)">A</text><text xml:space="preserve" font-family="Menlo-Regular,Menlo" font-size="30.0" fill="#00B1FF" transform="matrix(1.00, 0.00, -0.00, -1.00, 722.1, 105.2)">n</text><text xml:space="preserve" font-family="Menlo-Regular,Menlo" font-size="30.0" fill="#00B1FF" transform="matrix(1.00, 0.00, -0.00, -1.00, 740.2, 105.2)">y</text><text xml:space="preserve" font-family="Menlo-Regular,Menlo" font-size="30.0" fill="#00B1FF" transform="matrix(1.00, 0.00, -0.00, -1.00, 758.3, 105.2)">O</text><text xml:space="preserve" font-family="Menlo-Regular,Menlo" font-size="30.0" fill="#00B1FF" transform="matrix(1.00, 0.00, -0.00, -1.00, 776.3, 105.2)">b</text><text xml:space="preserve" font-family="Menlo-Regular,Menlo" font-size="30.0" fill="#00B1FF" transform="matrix(1.00, 0.00, -0.00, -1.00, 794.4, 105.2)">j</text><text xml:space="preserve" font-family="Menlo-Regular,Menlo" font-size="30.0" fill="#00B1FF" transform="matrix(1.00, 0.00, -0.00, -1.00, 812.5, 105.2)">e</text><text xml:space="preserve" font-family="Menlo-Regular,Menlo" font-size="30.0" fill="#00B1FF" transform="matrix(1.00, 0.00, -0.00, -1.00, 830.5, 105.2)">c</text><text xml:space="preserve" font-family="Menlo-Regular,Menlo" font-size="30.0" fill="#00B1FF" transform="matrix(1.00, 0.00, -0.00, -1.00, 848.6, 105.2)">t</text><text xml:space="preserve" font-family="Menlo-Regular,Menlo" font-size="30.0" fill="#FFFFFF" transform="matrix(1.00, 0.00, -0.00, -1.00, 866.6, 105.2)">]</text><text xml:space="preserve" font-family="Menlo-Regular,Menlo" font-size="30.0" fill="#FFFFFF" transform="matrix(1.00, 0.00, -0.00, -1.00, 884.7, 105.2)">?</text><text xml:space="preserve" font-family="Menlo-Regular,Menlo" font-size="30.0" fill="#FFFFFF" transform="matrix(1.00, 0.00, -0.00, -1.00, 902.8, 105.2)">,</text><text xml:space="preserve" font-family="Menlo-Regular,Menlo" font-size="30.0" fill="#FFFFFF" transform="matrix(1.00, 0.00, -0.00, -1.00, 920.8, 105.2)"> </text><text xml:space="preserve" font-family="Menlo-Regular,Menlo" font-size="30.0" fill="#FFFFFF" transform="matrix(1.00, 0.00, -0.00, -1.00, 938.9, 105.2)"> </text><text xml:space="preserve" font-family="Menlo-Regular,Menlo" font-size="30.0" fill="#FFFFFF" transform="matrix(1.00, 0.00, -0.00, -1.00, 144.2, 70.2)"> </text><text xml:space="preserve" font-family="Menlo-Regular,Menlo" font-size="30.0" fill="#FFFFFF" transform="matrix(1.00, 0.00, -0.00, -1.00, 162.2, 70.2)"> </text><text xml:space="preserve" font-family="Menlo-Regular,Menlo" font-size="30.0" fill="#FFFFFF" transform="matrix(1.00, 0.00, -0.00, -1.00, 180.3, 70.2)"> </text><text xml:space="preserve" font-family="Menlo-Regular,Menlo" font-size="30.0" fill="#FFFFFF" transform="matrix(1.00, 0.00, -0.00, -1.00, 198.4, 70.2)"> </text><text xml:space="preserve" font-family="Menlo-Regular,Menlo" font-size="30.0" fill="#FFFFFF" transform="matrix(1.00, 0.00, -0.00, -1.00, 216.4, 70.2)"> </text><text xml:space="preserve" font-family="Menlo-Regular,Menlo" font-size="30.0" fill="#FFFFFF" transform="matrix(1.00, 0.00, -0.00, -1.00, 234.5, 70.2)"> </text><text xml:space="preserve" font-family="Menlo-Regular,Menlo" font-size="30.0" fill="#FFFFFF" transform="matrix(1.00, 0.00, -0.00, -1.00, 252.6, 70.2)"> </text><text xml:space="preserve" font-family="Menlo-Regular,Menlo" font-size="30.0" fill="#FFFFFF" transform="matrix(1.00, 0.00, -0.00, -1.00, 270.6, 70.2)"> </text><text xml:space="preserve" font-family="Menlo-Regular,Menlo" font-size="30.0" fill="#FFFFFF" transform="matrix(1.00, 0.00, -0.00, -1.00, 288.7, 70.2)"> </text><text xml:space="preserve" font-family="Menlo-Regular,Menlo" font-size="30.0" fill="#FFFFFF" transform="matrix(1.00, 0.00, -0.00, -1.00, 306.8, 70.2)"> </text><text xml:space="preserve" font-family="Menlo-Regular,Menlo" font-size="30.0" fill="#FFFFFF" transform="matrix(1.00, 0.00, -0.00, -1.00, 324.8, 70.2)">h</text><text xml:space="preserve" font-family="Menlo-Regular,Menlo" font-size="30.0" fill="#FFFFFF" transform="matrix(1.00, 0.00, -0.00, -1.00, 342.9, 70.2)">e</text><text xml:space="preserve" font-family="Menlo-Regular,Menlo" font-size="30.0" fill="#FFFFFF" transform="matrix(1.00, 0.00, -0.00, -1.00, 361.0, 70.2)">a</text><text xml:space="preserve" font-family="Menlo-Regular,Menlo" font-size="30.0" fill="#FFFFFF" transform="matrix(1.00, 0.00, -0.00, -1.00, 379.0, 70.2)">d</text><text xml:space="preserve" font-family="Menlo-Regular,Menlo" font-size="30.0" fill="#FFFFFF" transform="matrix(1.00, 0.00, -0.00, -1.00, 397.1, 70.2)">e</text><text xml:space="preserve" font-family="Menlo-Regular,Menlo" font-size="30.0" fill="#FFFFFF" transform="matrix(1.00, 0.00, -0.00, -1.00, 415.1, 70.2)">r</text><text xml:space="preserve" font-family="Menlo-Regular,Menlo" font-size="30.0" fill="#FFFFFF" transform="matrix(1.00, 0.00, -0.00, -1.00, 433.2, 70.2)">s</text><text xml:space="preserve" font-family="Menlo-Regular,Menlo" font-size="30.0" fill="#FFFFFF" transform="matrix(1.00, 0.00, -0.00, -1.00, 451.3, 70.2)">:</text><text xml:space="preserve" font-family="Menlo-Regular,Menlo" font-size="30.0" fill="#FFFFFF" transform="matrix(1.00, 0.00, -0.00, -1.00, 469.3, 70.2)"> </text><text xml:space="preserve" font-family="Menlo-Regular,Menlo" font-size="30.0" fill="#FFFFFF" transform="matrix(1.00, 0.00, -0.00, -1.00, 487.4, 70.2)">[</text><text xml:space="preserve" font-family="Menlo-Regular,Menlo" font-size="30.0" fill="#00B1FF" transform="matrix(1.00, 0.00, -0.00, -1.00, 505.4, 70.2)">S</text><text xml:space="preserve" font-family="Menlo-Regular,Menlo" font-size="30.0" fill="#00B1FF" transform="matrix(1.00, 0.00, -0.00, -1.00, 523.5, 70.2)">t</text><text xml:space="preserve" font-family="Menlo-Regular,Menlo" font-size="30.0" fill="#00B1FF" transform="matrix(1.00, 0.00, -0.00, -1.00, 541.5, 70.2)">r</text><text xml:space="preserve" font-family="Menlo-Regular,Menlo" font-size="30.0" fill="#00B1FF" transform="matrix(1.00, 0.00, -0.00, -1.00, 559.6, 70.2)">i</text><text xml:space="preserve" font-family="Menlo-Regular,Menlo" font-size="30.0" fill="#00B1FF" transform="matrix(1.00, 0.00, -0.00, -1.00, 577.7, 70.2)">n</text><text xml:space="preserve" font-family="Menlo-Regular,Menlo" font-size="30.0" fill="#00B1FF" transform="matrix(1.00, 0.00, -0.00, -1.00, 595.7, 70.2)">g</text><text xml:space="preserve" font-family="Menlo-Regular,Menlo" font-size="30.0" fill="#FFFFFF" transform="matrix(1.00, 0.00, -0.00, -1.00, 613.8, 70.2)">:</text><text xml:space="preserve" font-family="Menlo-Regular,Menlo" font-size="30.0" fill="#FFFFFF" transform="matrix(1.00, 0.00, -0.00, -1.00, 631.8, 70.2)"> </text><text xml:space="preserve" font-family="Menlo-Regular,Menlo" font-size="30.0" fill="#00B1FF" transform="matrix(1.00, 0.00, -0.00, -1.00, 649.9, 70.2)">S</text><text xml:space="preserve" font-family="Menlo-Regular,Menlo" font-size="30.0" fill="#00B1FF" transform="matrix(1.00, 0.00, -0.00, -1.00, 668.0, 70.2)">t</text><text xml:space="preserve" font-family="Menlo-Regular,Menlo" font-size="30.0" fill="#00B1FF" transform="matrix(1.00, 0.00, -0.00, -1.00, 686.0, 70.2)">r</text><text xml:space="preserve" font-family="Menlo-Regular,Menlo" font-size="30.0" fill="#00B1FF" transform="matrix(1.00, 0.00, -0.00, -1.00, 704.1, 70.2)">i</text><text xml:space="preserve" font-family="Menlo-Regular,Menlo" font-size="30.0" fill="#00B1FF" transform="matrix(1.00, 0.00, -0.00, -1.00, 722.2, 70.2)">n</text><text xml:space="preserve" font-family="Menlo-Regular,Menlo" font-size="30.0" fill="#00B1FF" transform="matrix(1.00, 0.00, -0.00, -1.00, 740.2, 70.2)">g</text><text xml:space="preserve" font-family="Menlo-Regular,Menlo" font-size="30.0" fill="#FFFFFF" transform="matrix(1.00, 0.00, -0.00, -1.00, 758.3, 70.2)">]</text><text xml:space="preserve" font-family="Menlo-Regular,Menlo" font-size="30.0" fill="#FFFFFF" transform="matrix(1.00, 0.00, -0.00, -1.00, 776.3, 70.2)">?</text><text xml:space="preserve" font-family="Menlo-Regular,Menlo" font-size="30.0" fill="#FFFFFF" transform="matrix(1.00, 0.00, -0.00, -1.00, 794.4, 70.2)"> </text><text xml:space="preserve" font-family="Menlo-Regular,Menlo" font-size="30.0" fill="#FFFFFF" transform="matrix(1.00, 0.00, -0.00, -1.00, 812.5, 70.2)">=</text><text xml:space="preserve" font-family="Menlo-Regular,Menlo" font-size="30.0" fill="#FFFFFF" transform="matrix(1.00, 0.00, -0.00, -1.00, 830.5, 70.2)"> </text><text xml:space="preserve" font-family="Menlo-Regular,Menlo" font-size="30.0" fill="#DD38A5" transform="matrix(1.00, 0.00, -0.00, -1.00, 848.6, 70.2)">n</text><text xml:space="preserve" font-family="Menlo-Regular,Menlo" font-size="30.0" fill="#DD38A5" transform="matrix(1.00, 0.00, -0.00, -1.00, 866.6, 70.2)">i</text><text xml:space="preserve" font-family="Menlo-Regular,Menlo" font-size="30.0" fill="#DD38A5" transform="matrix(1.00, 0.00, -0.00, -1.00, 884.7, 70.2)">l</text><text xml:space="preserve" font-family="Menlo-Regular,Menlo" font-size="30.0" fill="#FFFFFF" transform="matrix(1.00, 0.00, -0.00, -1.00, 902.8, 70.2)">)</text><text xml:space="preserve" font-family="Menlo-Regular,Menlo" font-size="30.0" fill="#FFFFFF" transform="matrix(1.00, 0.00, -0.00, -1.00, 920.8, 70.2)"> </text><text xml:space="preserve" font-family="Menlo-Regular,Menlo" font-size="30.0" fill="#FFFFFF" transform="matrix(1.00, 0.00, -0.00, -1.00, 938.9, 70.2)">-</text><text xml:space="preserve" font-family="Menlo-Regular,Menlo" font-size="30.0" fill="#FFFFFF" transform="matrix(1.00, 0.00, -0.00, -1.00, 957.0, 70.2)">&gt;</text><text xml:space="preserve" font-family="Menlo-Regular,Menlo" font-size="30.0" fill="#FFFFFF" transform="matrix(1.00, 0.00, -0.00, -1.00, 975.0, 70.2)"> </text><text xml:space="preserve" font-family="Menlo-Regular,Menlo" font-size="30.0" fill="#00B1FF" transform="matrix(1.00, 0.00, -0.00, -1.00, 993.1, 70.2)">N</text><text xml:space="preserve" font-family="Menlo-Regular,Menlo" font-size="30.0" fill="#00B1FF" transform="matrix(1.00, 0.00, -0.00, -1.00, 1011.1, 70.2)">S</text><text xml:space="preserve" font-family="Menlo-Regular,Menlo" font-size="30.0" fill="#00B1FF" transform="matrix(1.00, 0.00, -0.00, -1.00, 1029.2, 70.2)">U</text><text xml:space="preserve" font-family="Menlo-Regular,Menlo" font-size="30.0" fill="#00B1FF" transform="matrix(1.00, 0.00, -0.00, -1.00, 1047.3, 70.2)">R</text><text xml:space="preserve" font-family="Menlo-Regular,Menlo" font-size="30.0" fill="#00B1FF" transform="matrix(1.00, 0.00, -0.00, -1.00, 1065.3, 70.2)">L</text><text xml:space="preserve" font-family="Menlo-Regular,Menlo" font-size="30.0" fill="#00B1FF" transform="matrix(1.00, 0.00, -0.00, -1.00, 1083.4, 70.2)">R</text><text xml:space="preserve" font-family="Menlo-Regular,Menlo" font-size="30.0" fill="#00B1FF" transform="matrix(1.00, 0.00, -0.00, -1.00, 1101.5, 70.2)">e</text><text xml:space="preserve" font-family="Menlo-Regular,Menlo" font-size="30.0" fill="#00B1FF" transform="matrix(1.00, 0.00, -0.00, -1.00, 1119.5, 70.2)">q</text><text xml:space="preserve" font-family="Menlo-Regular,Menlo" font-size="30.0" fill="#00B1FF" transform="matrix(1.00, 0.00, -0.00, -1.00, 1137.6, 70.2)">u</text><text xml:space="preserve" font-family="Menlo-Regular,Menlo" font-size="30.0" fill="#00B1FF" transform="matrix(1.00, 0.00, -0.00, -1.00, 1155.6, 70.2)">e</text><text xml:space="preserve" font-family="Menlo-Regular,Menlo" font-size="30.0" fill="#00B1FF" transform="matrix(1.00, 0.00, -0.00, -1.00, 1173.7, 70.2)">s</text><text xml:space="preserve" font-family="Menlo-Regular,Menlo" font-size="30.0" fill="#00B1FF" transform="matrix(1.00, 0.00, -0.00, -1.00, 1191.8, 70.2)">t</text><text xml:space="preserve" font-family="Menlo-Regular,Menlo" font-size="30.0" fill="#FFFFFF" transform="matrix(1.00, 0.00, -0.00, -1.00, 1209.8, 70.2)"> </text><text xml:space="preserve" font-family="Menlo-Regular,Menlo" font-size="30.0" fill="#FFFFFF" transform="matrix(1.00, 0.00, -0.00, -1.00, 1227.9, 70.2)">{</text><text xml:space="preserve" font-family="Menlo-Regular,Menlo" font-size="30.0" fill="#FFFFFF" transform="matrix(1.00, 0.00, -0.00, -1.00, 1245.9, 70.2)"> </text><text xml:space="preserve" font-family="Menlo-Regular,Menlo" font-size="30.0" fill="#FFFFFF" transform="matrix(1.00, 0.00, -0.00, -1.00, 0.2, 35.2)"> </text><text xml:space="preserve" font-family="Menlo-Regular,Menlo" font-size="30.0" fill="#FFFFFF" transform="matrix(1.00, 0.00, -0.00, -1.00, 18.2, 35.2)"> </text><text xml:space="preserve" font-family="Menlo-Regular,Menlo" font-size="30.0" fill="#FFFFFF" transform="matrix(1.00, 0.00, -0.00, -1.00, 36.3, 35.2)"> </text><text xml:space="preserve" font-family="Menlo-Regular,Menlo" font-size="30.0" fill="#FFFFFF" transform="matrix(1.00, 0.00, -0.00, -1.00, 54.4, 35.2)"> </text><text xml:space="preserve" font-family="Menlo-Regular,Menlo" font-size="30.0" fill="#FFFFFF" transform="matrix(1.00, 0.00, -0.00, -1.00, 72.4, 35.2)"> </text><text xml:space="preserve" font-family="Menlo-Regular,Menlo" font-size="30.0" fill="#FFFFFF" transform="matrix(1.00, 0.00, -0.00, -1.00, 90.5, 35.2)"> </text><text xml:space="preserve" font-family="Menlo-Regular,Menlo" font-size="30.0" fill="#FFFFFF" transform="matrix(1.00, 0.00, -0.00, -1.00, 108.6, 35.2)"> </text><text xml:space="preserve" font-family="Menlo-Regular,Menlo" font-size="30.0" fill="#FFFFFF" transform="matrix(1.00, 0.00, -0.00, -1.00, 126.6, 35.2)"> </text><text xml:space="preserve" font-family="Menlo-Regular,Menlo" font-size="30.0" fill="#DD38A5" transform="matrix(1.00, 0.00, -0.00, -1.00, 144.7, 35.2)">v</text><text xml:space="preserve" font-family="Menlo-Regular,Menlo" font-size="30.0" fill="#DD38A5" transform="matrix(1.00, 0.00, -0.00, -1.00, 162.7, 35.2)">a</text><text xml:space="preserve" font-family="Menlo-Regular,Menlo" font-size="30.0" fill="#DD38A5" transform="matrix(1.00, 0.00, -0.00, -1.00, 180.8, 35.2)">r</text><text xml:space="preserve" font-family="Menlo-Regular,Menlo" font-size="30.0" fill="#FFFFFF" transform="matrix(1.00, 0.00, -0.00, -1.00, 198.9, 35.2)"> </text><text xml:space="preserve" font-family="Menlo-Regular,Menlo" font-size="30.0" fill="#FFFFFF" transform="matrix(1.00, 0.00, -0.00, -1.00, 216.9, 35.2)">r</text><text xml:space="preserve" font-family="Menlo-Regular,Menlo" font-size="30.0" fill="#FFFFFF" transform="matrix(1.00, 0.00, -0.00, -1.00, 235.0, 35.2)">e</text><text xml:space="preserve" font-family="Menlo-Regular,Menlo" font-size="30.0" fill="#FFFFFF" transform="matrix(1.00, 0.00, -0.00, -1.00, 253.0, 35.2)">q</text><text xml:space="preserve" font-family="Menlo-Regular,Menlo" font-size="30.0" fill="#FFFFFF" transform="matrix(1.00, 0.00, -0.00, -1.00, 271.1, 35.2)">u</text><text xml:space="preserve" font-family="Menlo-Regular,Menlo" font-size="30.0" fill="#FFFFFF" transform="matrix(1.00, 0.00, -0.00, -1.00, 289.2, 35.2)">e</text><text xml:space="preserve" font-family="Menlo-Regular,Menlo" font-size="30.0" fill="#FFFFFF" transform="matrix(1.00, 0.00, -0.00, -1.00, 307.2, 35.2)">s</text><text xml:space="preserve" font-family="Menlo-Regular,Menlo" font-size="30.0" fill="#FFFFFF" transform="matrix(1.00, 0.00, -0.00, -1.00, 325.3, 35.2)">t</text><text xml:space="preserve" font-family="Menlo-Regular,Menlo" font-size="30.0" fill="#FFFFFF" transform="matrix(1.00, 0.00, -0.00, -1.00, 343.4, 35.2)"> </text><text xml:space="preserve" font-family="Menlo-Regular,Menlo" font-size="30.0" fill="#FFFFFF" transform="matrix(1.00, 0.00, -0.00, -1.00, 361.4, 35.2)">=</text><text xml:space="preserve" font-family="Menlo-Regular,Menlo" font-size="30.0" fill="#FFFFFF" transform="matrix(1.00, 0.00, -0.00, -1.00, 379.5, 35.2)"> </text><text xml:space="preserve" font-family="Menlo-Regular,Menlo" font-size="30.0" fill="#00B1FF" transform="matrix(1.00, 0.00, -0.00, -1.00, 397.5, 35.2)">N</text><text xml:space="preserve" font-family="Menlo-Regular,Menlo" font-size="30.0" fill="#00B1FF" transform="matrix(1.00, 0.00, -0.00, -1.00, 415.6, 35.2)">S</text><text xml:space="preserve" font-family="Menlo-Regular,Menlo" font-size="30.0" fill="#00B1FF" transform="matrix(1.00, 0.00, -0.00, -1.00, 433.7, 35.2)">M</text><text xml:space="preserve" font-family="Menlo-Regular,Menlo" font-size="30.0" fill="#00B1FF" transform="matrix(1.00, 0.00, -0.00, -1.00, 451.7, 35.2)">u</text><text xml:space="preserve" font-family="Menlo-Regular,Menlo" font-size="30.0" fill="#00B1FF" transform="matrix(1.00, 0.00, -0.00, -1.00, 469.8, 35.2)">t</text><text xml:space="preserve" font-family="Menlo-Regular,Menlo" font-size="30.0" fill="#00B1FF" transform="matrix(1.00, 0.00, -0.00, -1.00, 487.9, 35.2)">a</text><text xml:space="preserve" font-family="Menlo-Regular,Menlo" font-size="30.0" fill="#00B1FF" transform="matrix(1.00, 0.00, -0.00, -1.00, 505.9, 35.2)">b</text><text xml:space="preserve" font-family="Menlo-Regular,Menlo" font-size="30.0" fill="#00B1FF" transform="matrix(1.00, 0.00, -0.00, -1.00, 524.0, 35.2)">l</text><text xml:space="preserve" font-family="Menlo-Regular,Menlo" font-size="30.0" fill="#00B1FF" transform="matrix(1.00, 0.00, -0.00, -1.00, 542.0, 35.2)">e</text><text xml:space="preserve" font-family="Menlo-Regular,Menlo" font-size="30.0" fill="#00B1FF" transform="matrix(1.00, 0.00, -0.00, -1.00, 560.1, 35.2)">U</text><text xml:space="preserve" font-family="Menlo-Regular,Menlo" font-size="30.0" fill="#00B1FF" transform="matrix(1.00, 0.00, -0.00, -1.00, 578.2, 35.2)">R</text><text xml:space="preserve" font-family="Menlo-Regular,Menlo" font-size="30.0" fill="#00B1FF" transform="matrix(1.00, 0.00, -0.00, -1.00, 596.2, 35.2)">L</text><text xml:space="preserve" font-family="Menlo-Regular,Menlo" font-size="30.0" fill="#00B1FF" transform="matrix(1.00, 0.00, -0.00, -1.00, 614.3, 35.2)">R</text><text xml:space="preserve" font-family="Menlo-Regular,Menlo" font-size="30.0" fill="#00B1FF" transform="matrix(1.00, 0.00, -0.00, -1.00, 632.4, 35.2)">e</text><text xml:space="preserve" font-family="Menlo-Regular,Menlo" font-size="30.0" fill="#00B1FF" transform="matrix(1.00, 0.00, -0.00, -1.00, 650.4, 35.2)">q</text><text xml:space="preserve" font-family="Menlo-Regular,Menlo" font-size="30.0" fill="#00B1FF" transform="matrix(1.00, 0.00, -0.00, -1.00, 668.5, 35.2)">u</text><text xml:space="preserve" font-family="Menlo-Regular,Menlo" font-size="30.0" fill="#00B1FF" transform="matrix(1.00, 0.00, -0.00, -1.00, 686.6, 35.2)">e</text><text xml:space="preserve" font-family="Menlo-Regular,Menlo" font-size="30.0" fill="#00B1FF" transform="matrix(1.00, 0.00, -0.00, -1.00, 704.6, 35.2)">s</text><text xml:space="preserve" font-family="Menlo-Regular,Menlo" font-size="30.0" fill="#00B1FF" transform="matrix(1.00, 0.00, -0.00, -1.00, 722.7, 35.2)">t</text><text xml:space="preserve" font-family="Menlo-Regular,Menlo" font-size="30.0" fill="#FFFFFF" transform="matrix(1.00, 0.00, -0.00, -1.00, 740.7, 35.2)">(</text><text xml:space="preserve" font-family="Menlo-Regular,Menlo" font-size="30.0" fill="#FFFFFF" transform="matrix(1.00, 0.00, -0.00, -1.00, 758.8, 35.2)">…</text><text xml:space="preserve" font-family="Menlo-Regular,Menlo" font-size="30.0" fill="#FFFFFF" transform="matrix(1.00, 0.00, -0.00, -1.00, 776.8, 35.2)">)</text><text xml:space="preserve" font-family="Menlo-Regular,Menlo" font-size="30.0" fill="#FFFFFF" transform="matrix(1.00, 0.00, -0.00, -1.00, 794.9, 35.2)"> </text><text xml:space="preserve" font-family="Menlo-Regular,Menlo" font-size="30.0" fill="#FFFFFF" transform="matrix(1.00, 0.00, -0.00, -1.00, 0.2, 0.2)"> </text><text xml:space="preserve" font-family="Menlo-Regular,Menlo" font-size="30.0" fill="#4AD156" transform="matrix(1.00, 0.00, -0.00, -1.00, 18.2, 0.2)"> </text><text xml:space="preserve" font-family="Menlo-Regular,Menlo" font-size="30.0" fill="#4AD156" transform="matrix(1.00, 0.00, -0.00, -1.00, 36.3, 0.2)"> </text><text xml:space="preserve" font-family="Menlo-Regular,Menlo" font-size="30.0" fill="#4AD156" transform="matrix(1.00, 0.00, -0.00, -1.00, 54.4, 0.2)"> </text><text xml:space="preserve" font-family="Menlo-Regular,Menlo" font-size="30.0" fill="#4AD156" transform="matrix(1.00, 0.00, -0.00, -1.00, 72.4, 0.2)"> </text><text xml:space="preserve" font-family="Menlo-Regular,Menlo" font-size="30.0" fill="#4AD156" transform="matrix(1.00, 0.00, -0.00, -1.00, 90.5, 0.2)"> </text><text xml:space="preserve" font-family="Menlo-Regular,Menlo" font-size="30.0" fill="#4AD156" transform="matrix(1.00, 0.00, -0.00, -1.00, 108.6, 0.2)"> </text></g></svg>