<?xml version="1.0" encoding="UTF-8" standalone="no"?><svg xmlns="http://www.w3.org/2000/svg" xmlns:xlink="http://www.w3.org/1999/xlink" clip-rule="evenodd" stroke-miterlimit="10" viewBox="0 0 377 46"><desc>SVG generated by Keynote</desc><defs></defs><g transform="matrix(1.00, 0.00, -0.00, -1.00, 0.0, 46.0)"><text xml:space="preserve" font-family="Helvetica-Light,Helvetica" font-size="37.0" fill="#FEFFFF" transform="matrix(1.00, 0.00, -0.00, -1.00, 1.2, 9.6)">a</text><text xml:space="preserve" font-family="Helvetica-Light,Helvetica" font-size="37.0" fill="#FEFFFF" transform="matrix(1.00, 0.00, -0.00, -1.00, 21.8, 9.6)">e</text><text xml:space="preserve" font-family="Helvetica-Light,Helvetica" font-size="37.0" fill="#FEFFFF" transform="matrix(1.00, 0.00, -0.00, -1.00, 42.3, 9.6)">r</text><text xml:space="preserve" font-family="Helvetica-Light,Helvetica" font-size="37.0" fill="#FEFFFF" transform="matrix(1.00, 0.00, -0.00, -1.00, 54.0, 9.6)">o</text><text xml:space="preserve" font-family="Helvetica-Light,Helvetica" font-size="37.0" fill="#FEFFFF" transform="matrix(1.00, 0.00, -0.00, -1.00, 74.6, 9.6)">g</text><text xml:space="preserve" font-family="Helvetica-Light,Helvetica" font-size="37.0" fill="#FEFFFF" transform="matrix(1.00, 0.00, -0.00, -1.00, 97.2, 9.6)">e</text><text xml:space="preserve" font-family="Helvetica-Light,Helvetica" font-size="37.0" fill="#FEFFFF" transform="matrix(1.00, 0.00, -0.00, -1.00, 117.7, 9.6)">a</text><text xml:space="preserve" font-family="Helvetica-Light,Helvetica" font-size="37.0" fill="#FEFFFF" transform="matrix(1.00, 0.00, -0.00, -1.00, 138.3, 9.6)">r</text><text xml:space="preserve" font-family="Helvetica-Light,Helvetica" font-size="37.0" fill="#FEFFFF" transform="matrix(1.00, 0.00, -0.00, -1.00, 148.6, 9.6)">-</text><text xml:space="preserve" font-family="Helvetica-Light,Helvetica" font-size="37.0" fill="#FEFFFF" transform="matrix(1.00, 0.00, -0.00, -1.00, 160.9, 9.6)">i</text><text xml:space="preserve" font-family="Helvetica-Light,Helvetica" font-size="37.0" fill="#FEFFFF" transform="matrix(1.00, 0.00, -0.00, -1.00, 169.1, 9.6)">o</text><text xml:space="preserve" font-family="Helvetica-Light,Helvetica" font-size="37.0" fill="#FEFFFF" transform="matrix(1.00, 0.00, -0.00, -1.00, 189.7, 9.6)">s</text><text xml:space="preserve" font-family="Helvetica-Light,Helvetica" font-size="37.0" fill="#FEFFFF" transform="matrix(1.00, 0.00, -0.00, -1.00, 208.2, 9.6)">-</text><text xml:space="preserve" font-family="Helvetica-Light,Helvetica" font-size="37.0" fill="#FEFFFF" transform="matrix(1.00, 0.00, -0.00, -1.00, 220.5, 9.6)">h</text><text xml:space="preserve" font-family="Helvetica-Light,Helvetica" font-size="37.0" fill="#FEFFFF" transform="matrix(1.00, 0.00, -0.00, -1.00, 241.1, 9.6)">t</text><text xml:space="preserve" font-family="Helvetica-Light,Helvetica" font-size="37.0" fill="#FEFFFF" transform="matrix(1.00, 0.00, -0.00, -1.00, 251.4, 9.6)">t</text><text xml:space="preserve" font-family="Helvetica-Light,Helvetica" font-size="37.0" fill="#FEFFFF" transform="matrix(1.00, 0.00, -0.00, -1.00, 261.7, 9.6)">p</text><text xml:space="preserve" font-family="Helvetica-Light,Helvetica" font-size="37.0" fill="#FEFFFF" transform="matrix(1.00, 0.00, -0.00, -1.00, 284.3, 9.6)">s</text><text xml:space="preserve" font-family="Helvetica-Light,Helvetica" font-size="37.0" fill="#FEFFFF" transform="matrix(1.00, 0.00, -0.00, -1.00, 302.8, 9.6)">t</text><text xml:space="preserve" font-family="Helvetica-Light,Helvetica" font-size="37.0" fill="#FEFFFF" transform="matrix(1.00, 0.00, -0.00, -1.00, 313.1, 9.6)">u</text><text xml:space="preserve" font-family="Helvetica-Light,Helvetica" font-size="37.0" fill="#FEFFFF" transform="matrix(1.00, 0.00, -0.00, -1.00, 333.6, 9.6)">b</text><text xml:space="preserve" font-family="Helvetica-Light,Helvetica" font-size="37.0" fill="#FEFFFF" transform="matrix(1.00, 0.00, -0.00, -1.00, 356.2, 9.6)"> </text><text xml:space="preserve" font-family="Helvetica-Light,Helvetica" font-size="37.0" fill="#FEFFFF" transform="matrix(1.00, 0.00, -0.00, -1.00, 366.5, 9.6)"> </text><text xml:space="preserve" font-family="Helvetica-Light,Helvetica" font-size="37.0" fill="#FEFFFF" transform="matrix(1.00, 0.00, -0.00, -1.00, 376.8, 9.6)"> </text><g><clipPath id="clip0x7f9bdbf7d8f0"><path d="M 0.2 4.9 L 356.2 4.9 L 356.2 8.8 L 0.2 8.8 Z M 0.2 4.9 "></path></clipPath><g clip-path="url(#clip0x7f9bdbf7d8f0)"><path d="M 11.3 70.9 L 366.3 70.9 " fill="none" stroke="#FEFFFF" stroke-width="1.85" transform="matrix(1.00, 0.00, 0.00, -1.00, -10.1, 77.7)"></path></g></g></g></svg>